<svg id="Layer_1" xmlns="http://www.w3.org/2000/svg" width="51" height="62" viewBox="0 0 51 62"><style>.st0{fill:#fff}.st1{fill:#ddd}.st2{fill:#555}</style><path class="st0" d="M7.4.4H0v29.1l7.8-.1c8.1.1 14.7-6.4 14.8-14.4v-.1c0-8-7-14.5-15.2-14.5z"/><path class="st1" d="M7.7 0H0v1h7.8c7.7 0 14 6.2 14.2 14 0 7.7-6.7 14-14.4 14H0v1h7.7C16 30 22.8 23.3 23 15 22.8 6.7 16 0 7.7 0z"/><path class="st2" d="M6.3 15.1c0-.1 0-.2.1-.2l4.7-4.7c.1-.1.3-.1.4 0l.5.5c.1.1.1.3 0 .4l-4 4 4 3.9c.1.1.1.1.1.2s0 .2-.1.2l-.4.6c-.1.1-.3.1-.4 0l-4.7-4.7c-.1 0-.2-.1-.2-.2z"/><path class="st0" d="M28.4 15.3c0 .1 0 .1 0 0 .1 8.1 6.8 14.6 14.8 14.5l7.8.1V.8h-7.4c-8.2 0-15.2 6.5-15.2 14.5z"/><path class="st1" d="M28 15.4c.2 8.3 7 15 15.3 15H51v-1h-7.7c-7.7 0-14.3-6.3-14.3-14 .2-7.8 6.5-14 14.2-14H51v-1h-7.7C35 .4 28.2 7.1 28 15.4z"/><path class="st2" d="M44.6 15.8l-4.7 4.7c-.1.1-.3.1-.4 0l-.5-.6c-.1-.1-.1-.1-.1-.2s0-.2.1-.2l4-3.9-4-4c-.1-.1-.1-.3 0-.4l.5-.5c.1-.1.3-.1.5 0l4.7 4.7c.1.1.1.1.1.2-.1 0-.2.1-.2.2z"/><path class="st0" d="M7.4 32.3H0v29.1l7.8-.1c8.1.1 14.7-6.4 14.8-14.4v-.1c0-8-7-14.5-15.2-14.5z"/><path class="st1" d="M6.7 31.9H-1v1h7.8c7.8 0 14.1 6.2 14.2 14 0 7.7-6.7 14-14.4 14H-1v1h7.7c8.3 0 15.2-6.7 15.3-15-.2-8.4-7-15-15.3-15z"/><path class="st1" d="M5.3 47c0-.1 0-.2.1-.2l4.7-4.7c.1-.1.3-.1.4 0l.5.5c.1.1.1.3 0 .5l-4 4 4 3.9c.1.1.1.1.1.2s0 .2-.1.2l-.5.5c-.1.1-.3.1-.4 0l-4.7-4.7s-.1-.1-.1-.2z"/><path class="st0" d="M27.9 46.9c.1 0 .1.1 0 0 .1 8.1 6.8 14.6 14.8 14.5l7.8.1V32.4h-7.4c-8.2 0-15.2 6.5-15.2 14.5z"/><path class="st1" d="M27.5 47c.2 8.3 7 15 15.3 15h7.7v-1h-7.7c-7.7 0-14.4-6.3-14.4-14 .2-7.8 6.5-14 14.2-14h7.8v-1h-7.7c-8.2 0-15 6.7-15.2 15z"/><path class="st1" d="M44.1 47.3L39.4 52c-.1.1-.3.1-.5 0l-.5-.5c-.1-.1-.1-.1-.1-.2s0-.2.1-.2l4-3.9-4-4c-.1-.1-.1-.3 0-.5l.5-.5c.1-.1.3-.1.5 0l4.7 4.7c.1.1.1.1.1.2s0 .2-.1.2z"/></svg>