<svg width="162" height="32" viewBox="0 0 162 32" xmlns="http://www.w3.org/2000/svg" xmlns:xlink="http://www.w3.org/1999/xlink"><defs><path id="a" d="M0 0h55.762v31.618H0z"/></defs><g fill="none" fill-rule="evenodd"><g fill="#FFF"><path d="M20.22 9.428c1.725 0 3.122-1.426 3.122-3.186s-1.397-3.186-3.121-3.186-3.12 1.427-3.12 3.186c0 1.76 1.396 3.186 3.12 3.186"/><path d="M23.468 11.53H9.125v-.958c0-1.878 1.84-1.916 2.778-1.916 1.089 0 1.577.114 1.577.114V3.558s-.976-.154-2.29-.154c-3.004 0-8.561.843-8.561 7.321v.804H0v4.792h2.63v10.157H.188v4.792h11.79v-4.792H9.125V16.321h7.847v10.157h-2.44v4.792h11.377v-4.792h-2.441V11.529zm24.425 0H37.604v4.791h1.727l-2.215 7.13c-.413 1.188-.526 2.606-.526 2.606h-.15s-.112-1.418-.525-2.606l-2.216-7.13h1.727V11.53H25.138v4.792h2.178l5.37 14.949h7.66l5.37-14.949h2.177V11.53zm6.762 7.437c.338-1.535 1.24-2.914 3.117-2.914 1.427 0 2.44 1.341 2.44 2.914h-5.557zm12.279 1.648c0-5.483-3.23-9.544-9.012-9.544-6.233 0-10.063 4.522-10.063 10.31 0 5.25 3.717 10.348 10.626 10.348 5.22 0 8.336-2.759 8.336-2.759l-2.365-4.6s-2.591 1.879-5.446 1.879c-2.064 0-4.017-1.112-4.505-3.642h12.279s.15-1.341.15-1.992zm27.54-4.524H94.4s.074-.383.074-.996V14.06c0-1.801-.975-2.53-2.74-2.53h-6.12v4.791h1.802c.525 0 .825.307.825.844v9.313h-2.628v4.791h11.753v-4.79h-2.628v-2.875c0-3.603 1.727-5.941 5.332-5.941.788 0 1.313.114 1.313.114v-6.515s-.375-.077-.75-.077c-2.892 0-5.332 2.224-6.159 4.906m-17.216 0h-.076s.076-.383.076-.996V14.06c0-1.801-.978-2.53-2.743-2.53h-6.12v4.791h1.803c.525 0 .825.307.825.844v9.313h-2.628v4.791h11.752v-4.79H77.52v-2.875c0-3.603 1.727-5.941 5.332-5.941.787 0 1.313.114 1.313.114v-6.515s-.375-.077-.75-.077c-2.892 0-5.333 2.224-6.157 4.906"/></g><g transform="translate(106)"><mask id="b" fill="#fff"><use xlink:href="#a"/></mask><path d="M49.81 19.57c-.012.074-1.393 7.445-4.475 7.445-1.006 0-1.55-.752-1.62-2.234-.185-3.958 3.138-8.898 4.912-9.75.045-.015.071 0 .079.004l.022.016-.003.026c-.057.676-.151 2.993 1.056 4.432.018.02.023.026.026.035l.006.012-.003.013zm5.778-1.997c-.698.368-1.71.622-2.42.706a53.38 53.38 0 00.057-1.469c0-2.279-.888-4.702-2.532-4.702-1.188 0-1.477.928-1.563 1.14-.903-.057-5.554.02-8.408 6.877-.23.105-.398.133-.595.133-.604.02-1.112-.4-1.112-1.32 0-1.392.78-3.618 1.816-5.19-.2-.959-1.139-1.531-1.938-1.531-.304 0-.594.072-.862.214-3.018 1.87-5.083 5.476-5.545 6.095l-.098-.047c.245-.91.49-1.874.49-2.745 0-.782-.194-1.373-.58-1.756-.528-.524-1.275-.523-1.562-.518-.053.003-.271-.017-1.089.076 1.124-1.932 1.848-4.004 1.848-6.111 0-2.312-.993-4.225-2.872-5.534C26.846.654 24.373 0 21.473 0 15.77 0 10.318 2.092 6.12 5.89 2.288 9.36 0 13.898 0 18.028c0 2.54 1.424 5.272 4.552 5.272.4 0 .8-.053 1.19-.157a10.14 10.14 0 01-.225-2.157c0-3.682 1.8-7.852 4.812-11.155 3.29-3.603 7.41-5.587 11.607-5.587 2.745 0 5.7 1.41 5.7 4.505 0 1.157-.304 3.027-1.751 5.37-2.559 4.143-6.842 6.808-7.734 7.527.253-.788.452-1.53 1.685-5.028 1.137-3.23 1.943-5.62 1.943-7.002 0-1.343-1.275-2.011-2.54-2.079-.558-.03-1.038.057-1.104.118.88.81-.286 3.04-2.05 6.416-2.035 3.895-4.823 9.23-4.806 13.714.011 2.827 1.64 3.834 3.163 3.834 1.004 0 2.06-.426 2.548-.69-.42-2.47.093-4.789.524-6.892l.028-.007c2.422-.67 8.592-4.795 11.855-10.07.769 0 1.142.394 1.142.938 0 .395.006.752-1.188 3.354-1.335 2.907-3.185 6.526-3.185 9.042 0 1.837.767 2.769 2.28 2.769.957 0 2.112-.464 2.526-.716-1.13-4.968 3.086-10.616 4.892-13.108l.083.039c-.202.74-.549 1.772-.549 3.051 0 2.403 1.307 2.663 1.869 2.663 1.135 0 2.536-.89 3.265-1.384-.506 1.461-.837 2.868-.837 4.44 0 2.556 1.101 5.287 4.189 5.287 2.138 0 4.166-1.314 6.027-3.904 1.451-2.017 2.495-4.447 2.948-5.914l.007-.021.02-.01c.896-.298 1.617-.496 2.597-1.311.443-.443.265-1.304.105-1.6z" fill="#FEFEFE" mask="url(#b)"/></g></g></svg>